<svg width="82" height="90" viewBox="0 0 82 90" fill="none" xmlns="http://www.w3.org/2000/svg">
<g id="cargill-logo-vector 1" clip-path="url(#clip0_1220_6714)">
<g id="Group">
<path id="Vector" fill-rule="evenodd" clip-rule="evenodd" d="M26.1706 41.3099C28.3012 41.3099 29.5975 41.7218 30.2493 42.6004C30.6048 43.0792 30.7838 43.7155 30.788 44.5212C30.7901 44.9686 30.7384 45.4682 30.6342 46.0246L29.1735 53.7755C28.9714 54.8467 28.8491 55.6677 28.8525 56.3473C28.8533 56.5629 28.8718 56.7629 28.9 56.9517H24.9041C24.9028 56.9037 24.897 56.858 24.8965 56.8081C24.8953 56.4872 24.9176 56.1478 24.9432 55.7965L24.9848 55.1616H24.7638L24.6768 55.3121C23.9594 56.5791 22.3311 57.3626 20.936 57.3626C19.7795 57.3626 18.9513 57.0371 18.4739 56.393C17.9474 55.6834 17.8213 54.5715 18.0995 53.0899C18.6445 50.1958 19.8417 48.9713 22.845 48.2311L24.839 47.7325C26.0219 47.4448 26.5921 46.8723 26.8035 45.7512C26.9186 45.1362 26.8564 44.6611 26.6173 44.337C26.395 44.0387 26.0391 43.8877 25.5592 43.8877C24.4914 43.8877 23.9229 44.494 23.5716 46.0019H20.006C20.965 41.9332 24.2565 41.3099 26.1706 41.3099ZM26.1265 49.2894C26.1265 49.2894 26.0463 49.3707 25.8912 49.4372C25.6386 49.5443 25.0789 49.6445 24.7322 49.7401C24.4637 49.8139 24.1607 49.8989 23.8338 50.0494C22.9631 50.4553 22.5139 51.1178 22.2828 52.3382C22.1483 53.0525 22.2273 53.6361 22.5135 54.0216C22.7269 54.3111 23.0438 54.4635 23.4253 54.4635C24.9831 54.4635 25.471 52.8267 25.7029 51.5929L26.137 49.2889L26.1265 49.2894ZM40.4493 55.5832C39.6064 54.4469 39.4408 52.6577 40.0228 49.4718C41.2923 42.5344 43.6917 41.3104 45.7798 41.3104C46.7728 41.3104 48.2675 41.7144 48.4432 43.6282L48.4709 43.9256H48.7604C48.7604 43.9256 49.1004 42.1253 49.1739 41.7236H53.0559L50.1728 56.9522C49.4883 60.5901 47.3624 62.4019 43.4623 62.4019C39.8493 62.4019 39.313 60.061 39.2319 59.3365C39.2013 59.0613 39.2849 58.2491 39.2849 58.2491H43.0623V58.2528C43.0639 58.6227 43.0891 59.168 43.2034 59.3213C43.3594 59.5332 43.4892 59.7821 44.0889 59.7821C44.8843 59.7821 45.6458 59.5304 46.0177 57.5575L46.6593 54.1398H46.3501L46.2639 54.3014C45.4907 55.7725 44.0494 56.5163 42.5311 56.5163C41.5965 56.5154 40.9141 56.2125 40.4493 55.5832ZM44.3032 49.1343C43.8787 51.3926 43.8968 52.2606 44.312 52.8207C44.5187 53.1 44.8276 53.2344 45.2541 53.2344C46.4345 53.2344 47.0106 52.4471 47.6103 49.2691C48.0381 46.9937 48.0822 45.5481 47.6725 44.9935C47.4712 44.7239 47.1766 44.59 46.7707 44.59C45.5516 44.5909 44.9007 45.9572 44.3032 49.1343ZM59.2811 41.7236C59.1433 42.4582 56.5068 56.4651 56.4143 56.9522H52.2121L55.0814 41.7236H59.2811ZM66.9984 36.6433C66.8581 37.3903 63.2681 56.4572 63.1736 56.9522H58.9714C59.1117 56.2028 62.7025 37.1364 62.7971 36.6433H66.9984ZM73.7358 36.6433C73.5938 37.3903 70.003 56.4572 69.908 56.9522H65.7075C65.8496 56.2028 69.4412 37.1364 69.5336 36.6433H73.7358ZM41.0477 41.3099C39.6707 41.3099 38.0318 42.3686 37.2317 44.0706L37.1485 44.246H36.8409C36.8409 44.246 37.2107 42.2828 37.3149 41.7232H36.9552V41.7213H32.9581C32.9862 41.9115 33.0047 42.1105 33.006 42.3271C33.0085 42.8156 32.9446 43.3803 32.8341 44.0581C32.055 48.1933 30.5094 56.3935 30.4052 56.9517H34.6091C34.8776 55.5213 36.1891 48.5488 36.1891 48.5488C36.5846 46.4512 37.704 45.4737 39.7085 45.4737C40.0543 45.4737 40.3586 45.4954 40.6578 45.5439C40.751 45.0489 41.3385 41.9332 41.4549 41.3099H41.0477ZM6.26522 56.1594C5.21551 54.7437 5.16887 52.141 6.10554 47.1729C7.60068 39.2312 9.76314 36.5514 14.6726 36.5514C16.6342 36.5514 18.0112 37.0653 18.7634 38.0797C19.25 38.7344 19.4963 39.6292 19.5022 40.7512C19.5055 41.3625 19.437 42.0422 19.2975 42.7851L19.0967 43.8471H14.9596C14.9596 43.8471 15.2659 41.6798 15.2638 41.2019C15.2609 40.664 15.242 40.3731 15.055 40.1016C14.8608 39.8204 14.5726 39.5955 14.12 39.5955C12.2916 39.5955 11.6907 41.5094 10.6494 47.0394C9.84088 51.3321 9.55135 53.3022 10.1762 54.144C10.4128 54.4616 10.7696 54.6163 11.27 54.6163C12.7097 54.6163 13.2774 53.2598 14.0011 49.4852H18.1684C18.0864 49.9224 17.9499 50.645 17.9499 50.645C17.0737 55.2992 14.5906 57.66 10.57 57.66C8.39238 57.6591 7.02456 57.1812 6.26522 56.1594ZM74.628 36.6322H75.8895L75.847 36.8529H75.328L74.9549 38.8383H74.7326L75.1058 36.8529H74.5872L74.628 36.6322ZM77.4153 36.6322H77.8061L77.3909 38.8383H77.1686L77.5107 37.0205C77.5279 36.9263 77.551 36.8353 77.5632 36.7416H77.5582C77.5098 36.8704 77.4754 36.9531 77.4401 37.0385L76.6807 38.8383H76.4164L76.3391 37.0113C76.3347 36.9215 76.3322 36.8316 76.3315 36.7416H76.3265C76.3084 36.8353 76.2962 36.9323 76.2773 37.0265L75.9365 38.8383H75.7142L76.1294 36.6322H76.5236L76.5925 38.3535C76.5967 38.4472 76.59 38.5382 76.5736 38.6799H76.5795C76.6139 38.5682 76.6475 38.4588 76.6929 38.3503L77.4153 36.6322Z" fill="black"/>
<path id="Vector_2" fill-rule="evenodd" clip-rule="evenodd" d="M59.6408 39.9265C59.9715 31.5569 50.7867 25.2733 42.2138 27.2273C33.6447 29.1799 29.5034 37.3774 28.4209 39.9095H29.8223C31.6982 36.4428 33.5972 33.7519 36.8346 32.7495C38.8911 32.1123 40.5064 32.2587 44.4834 34.6961C46.3152 35.8195 50.461 39.1961 54.9141 39.8711C56.8497 40.1643 59.6408 39.9265 59.6408 39.9265Z" fill="#2E914E"/>
</g>
</g>
<defs>
<clipPath id="clip0_1220_6714">
<rect width="81" height="89" fill="white" transform="translate(0.379883 0.5)"/>
</clipPath>
</defs>
</svg>
