<svg width="56" height="56" viewBox="0 0 56 56" fill="none" xmlns="http://www.w3.org/2000/svg">
<rect x="4" y="4" width="48" height="48" rx="24" fill="#DCFAE6"/>
<rect x="4" y="4" width="48" height="48" rx="24" stroke="#ECFDF3" stroke-width="8"/>
<path d="M25 27.5004L27 29.5004L31.5 25.0004M36 28.0004C36 32.9088 30.646 36.4788 28.698 37.6152C28.4766 37.7444 28.3659 37.809 28.2097 37.8425C28.0884 37.8685 27.9116 37.8685 27.7903 37.8425C27.6341 37.809 27.5234 37.7444 27.302 37.6152C25.354 36.4788 20 32.9088 20 28.0004V23.218C20 22.4184 20 22.0187 20.1308 21.6751C20.2463 21.3715 20.434 21.1006 20.6777 20.8859C20.9535 20.6428 21.3278 20.5024 22.0764 20.2217L27.4382 18.211C27.6461 18.1331 27.75 18.0941 27.857 18.0786C27.9518 18.0649 28.0482 18.0649 28.143 18.0786C28.25 18.0941 28.3539 18.1331 28.5618 18.211L33.9236 20.2217C34.6722 20.5024 35.0465 20.6428 35.3223 20.8859C35.566 21.1006 35.7537 21.3715 35.8692 21.6751C36 22.0187 36 22.4184 36 23.218V28.0004Z" stroke="#079455" stroke-width="2" stroke-linecap="round" stroke-linejoin="round"/>
</svg>
