<svg width="38" height="30" viewBox="0 0 38 30" fill="none" xmlns="http://www.w3.org/2000/svg">
<g clip-path="url(#clip0_390_6085)">
<path opacity="0.4" d="M15.4079 30C15.2136 30 15.0167 29.9762 14.8206 29.9249C13.5724 29.6008 12.8229 28.3209 13.1466 27.0684L19.6823 1.75595C20.006 0.503511 21.2852 -0.249067 22.5271 0.0750149C23.7753 0.399097 24.5248 1.67902 24.2011 2.93146L17.6654 28.244C17.3928 29.3005 16.4455 30 15.4079 30Z" fill="white"/>
<path d="M10.5804 7.3114C9.70419 6.36294 8.22706 6.30798 7.28154 7.18876L0.74583 13.2825C0.26989 13.7256 0 14.3482 0 15C0 15.6519 0.26989 16.2744 0.74583 16.7175L7.28154 22.8113C7.73105 23.2306 8.30094 23.4375 8.86896 23.4375C9.4954 23.4375 10.1209 23.1867 10.5804 22.6886C11.4576 21.7401 11.4028 20.257 10.4583 19.3762L5.76433 15L10.4583 10.6238C11.4028 9.74304 11.4576 8.25991 10.5804 7.3114ZM36.6011 13.2825L30.0654 7.18876C29.1208 6.30798 27.6427 6.36294 26.7665 7.3114C25.8894 8.25991 25.9441 9.74304 26.8887 10.6238L31.5826 15L26.8887 19.3763C25.9441 20.257 25.8894 21.7401 26.7665 22.6886C27.226 23.1867 27.8515 23.4375 28.478 23.4375C29.046 23.4375 29.6159 23.2306 30.0654 22.8113L36.6011 16.7175C37.077 16.2744 37.3469 15.6519 37.3469 15C37.3469 14.3482 37.077 13.7256 36.6011 13.2825Z" fill="white"/>
</g>
<defs>
<clipPath id="clip0_390_6085">
<rect width="37.3469" height="30" fill="white"/>
</clipPath>
</defs>
</svg>
