<svg width="30" height="30" viewBox="0 0 30 30" fill="none" xmlns="http://www.w3.org/2000/svg">
<g clip-path="url(#clip0_390_6071)">
<path opacity="0.4" d="M28.7802 12.1875C28.9646 13.0964 29.0625 14.0368 29.0625 15C29.0625 22.7665 22.7665 29.0625 15 29.0625C7.23346 29.0625 0.9375 22.7665 0.9375 15C0.9375 7.23346 7.23346 0.9375 15 0.9375C15.6373 0.9375 16.26 0.994629 16.8748 1.07678V4.7168C16.8748 5.21484 16.4704 5.625 15.9666 5.625H14.5475C14.2495 5.625 13.9657 5.77881 13.7954 6.02783L13.32 6.73828C13.1994 6.92871 13.0078 7.06055 12.7879 7.11914L11.9364 7.32422C11.532 7.42676 11.2482 7.79297 11.2482 8.21045V8.4668C11.2482 8.96484 11.6597 9.375 12.1564 9.375H17.4353C17.6766 9.375 17.9107 9.47021 18.081 9.63867L18.4854 10.0488C18.6557 10.2173 18.8828 10.3125 19.124 10.3125H19.72C20.2167 10.3125 20.6282 10.7153 20.6282 11.2207C20.6282 11.6089 20.3728 11.9604 20.0038 12.085L17.2296 13.0078C17.0025 13.0811 16.7542 13.0664 16.5413 12.9565L15.6756 12.5244C15.2357 12.3047 14.7391 12.1875 14.2424 12.1875H14.1928C13.4974 12.1875 12.8234 12.4146 12.2699 12.8247L10.6593 14.0405C9.85037 14.6411 9.375 15.5933 9.375 16.5967V17.4243C9.375 18.2739 9.71555 19.0869 10.3116 19.6875C10.9147 20.2881 11.7306 20.625 12.575 20.625H14.0934C14.5972 20.625 15.0016 21.0352 15.0016 21.5332V23.2837C15.0016 24.0015 15.1719 24.7119 15.4912 25.3491C15.6848 25.7382 16.0213 26.0147 16.4145 26.1512C16.9361 26.0852 17.4449 25.9815 17.9416 25.8465C18.0652 25.7451 18.2039 25.6618 18.2938 25.5249L19.0601 24.3823C19.4788 23.7524 19.9683 23.1812 20.5218 22.6758C20.6708 22.5366 20.7701 22.3608 20.8056 22.1704L21.0539 20.8301C21.0823 20.6982 21.139 20.5664 21.2242 20.4565L22.3169 18.9917C22.4375 18.8379 22.5013 18.6475 22.5013 18.4497V17.7832C22.5013 17.2852 22.0969 16.875 21.5931 16.875H21.1107C20.8056 16.875 20.5218 16.7212 20.3586 16.4722L19.5781 15.3076C19.2517 14.8096 19.4788 14.1284 20.0464 13.9453L20.2025 13.894C20.4721 13.7988 20.763 13.8428 20.9972 13.9966L22.0615 14.707C22.3311 14.8901 22.6788 14.9121 22.9697 14.7656L23.8779 14.3115C24.183 14.1577 24.3745 13.8428 24.3745 13.4985V13.0957C24.3745 12.5977 24.7861 12.1875 25.2827 12.1875H28.7802Z" fill="white"/>
<path d="M25.2827 12.1874C24.7861 12.1874 24.3745 12.5975 24.3745 13.0956V13.4984C24.3745 13.8427 24.183 14.1576 23.8779 14.3114L22.9697 14.7655C22.6788 14.912 22.3311 14.89 22.0615 14.7069L20.9972 13.9965C20.763 13.8427 20.4721 13.7987 20.2025 13.8939L20.0464 13.9452C19.4788 14.1283 19.2517 14.8094 19.5781 15.3075L20.3586 16.472C20.5218 16.7211 20.8056 16.8749 21.1107 16.8749H21.5931C22.0969 16.8749 22.5013 17.285 22.5013 17.7831V18.4496C22.5013 18.6473 22.4375 18.8378 22.3169 18.9916L21.2242 20.4564C21.139 20.5663 21.0823 20.6981 21.0539 20.83L20.8056 22.1703C20.7701 22.3607 20.6708 22.5365 20.5218 22.6757C19.9683 23.181 19.4788 23.7523 19.0601 24.3822L18.2938 25.5248C18.2039 25.6616 18.0652 25.745 17.9416 25.8463C17.4449 25.9814 16.9361 26.0851 16.4145 26.151C16.0213 26.0146 15.6848 25.7381 15.4912 25.349C15.1719 24.7118 15.0016 24.0013 15.0016 23.2836V21.5331C15.0016 21.035 14.5972 20.6249 14.0934 20.6249H12.575C11.7306 20.6249 10.9147 20.288 10.3116 19.6874C9.71555 19.0868 9.375 18.2738 9.375 17.4242V16.5966C9.375 15.5931 9.85037 14.641 10.6593 14.0404L12.2699 12.8246C12.8234 12.4144 13.4974 12.1874 14.1928 12.1874H14.2424C14.7391 12.1874 15.2357 12.3046 15.6756 12.5243L16.5413 12.9564C16.7542 13.0663 17.0025 13.0809 17.2296 13.0077L20.0038 12.0848C20.3728 11.9603 20.6282 11.6088 20.6282 11.2206C20.6282 10.7152 20.2167 10.3124 19.72 10.3124H19.124C18.8828 10.3124 18.6557 10.2172 18.4854 10.0487L18.081 9.63855C17.9107 9.47009 17.6766 9.37488 17.4353 9.37488H12.1564C11.6597 9.37488 11.2482 8.96472 11.2482 8.46668V8.21033C11.2482 7.79285 11.532 7.42664 11.9364 7.3241L12.7879 7.11902C13.0078 7.06043 13.1994 6.92859 13.32 6.73816L13.7954 6.02771C13.9657 5.77869 14.2495 5.62488 14.5475 5.62488H15.9666C16.4704 5.62488 16.8748 5.21473 16.8748 4.71668V1.07666C22.8233 1.87113 27.5991 6.37002 28.7802 12.1874H25.2827Z" fill="white"/>
</g>
<defs>
<clipPath id="clip0_390_6071">
<rect width="30" height="30" fill="white"/>
</clipPath>
</defs>
</svg>
