<svg width="38" height="30" viewBox="0 0 38 30" fill="none" xmlns="http://www.w3.org/2000/svg">
<g clip-path="url(#clip0_390_6078)">
<path opacity="0.4" d="M7.46341 9.375C10.0397 9.375 12.128 7.27629 12.128 4.6875C12.128 2.09871 10.0397 0 7.46341 0C4.88737 0 2.79878 2.09871 2.79878 4.6875C2.79878 7.27629 4.88737 9.375 7.46341 9.375ZM29.8537 9.375C32.4299 9.375 34.5183 7.27629 34.5183 4.6875C34.5183 2.09871 32.4299 0 29.8537 0C27.2776 0 25.189 2.09871 25.189 4.6875C25.189 7.27629 27.2776 9.375 29.8537 9.375ZM32.1813 11.25H28.5755C27.8291 11.25 27.1246 11.4279 26.4847 11.7328C26.5204 12.0396 26.5776 12.3401 26.5776 12.6562C26.5776 14.6317 25.8323 16.4186 24.6438 17.8125H36.29C36.8572 17.8125 37.3171 17.3227 37.3171 16.7187C37.3171 13.6983 35.0178 11.25 32.1813 11.25ZM10.8171 11.7239C10.1813 11.4238 9.48163 11.25 8.74152 11.25H5.13576C2.29955 11.25 0 13.6983 0 16.7187C0 17.3227 0.459875 17.8125 1.02709 17.8125H12.6569C11.4685 16.4186 10.7232 14.6317 10.7232 12.6562C10.7232 12.337 10.7805 12.0335 10.8171 11.7239Z" fill="white"/>
<path d="M18.6508 18.75C21.9985 18.75 24.7122 16.0216 24.7122 12.6562C24.7122 9.29074 21.9985 6.5625 18.6508 6.5625C15.3034 6.5625 12.5894 9.29074 12.5894 12.6562C12.5894 16.0216 15.3034 18.75 18.6508 18.75ZM21.5678 20.625H15.7502C11.1741 20.625 7.46387 24.1226 7.46387 28.4374C7.46387 29.3003 8.20595 30 9.12109 30H28.1969C29.112 30 29.8541 29.3003 29.8541 28.4374C29.8541 24.1226 26.1444 20.625 21.5678 20.625Z" fill="white"/>
</g>
<defs>
<clipPath id="clip0_390_6078">
<rect width="37.3171" height="30" fill="white"/>
</clipPath>
</defs>
</svg>
